<?xml version="1.0" encoding="iso-8859-1"?>
<!-- Generator: Adobe Illustrator 19.0.0, SVG Export Plug-In . SVG Version: 6.00 Build 0)  -->
<svg version="1.1" id="Layer_1" xmlns="http://www.w3.org/2000/svg" xmlns:xlink="http://www.w3.org/1999/xlink" x="0px" y="0px"
	 viewBox="0 0 496 496" style="enable-background:new 0 0 496 496;" xml:space="preserve">
<g>
	<g>
		<g>
			<path d="M454.032,224H312h-18.608H256v-32v-8v-56h56c66.168,0,120-53.832,120-120V0h-72c-66.168,0-120,53.832-120,120v4.392
				C219.272,88.368,180.464,64,136,64H64v8c0,66.168,53.832,120,120,120h56v32H41.968L5.392,352H40v144h264h8h144V352h34.608
				L454.032,224z M360,16h55.696c-4.104,53.624-49.04,96-103.696,96h-55.696C260.408,58.376,305.344,16,360,16z M184,176
				c-54.656,0-99.592-42.376-103.696-96H136c54.656,0,99.592,42.376,103.696,96H184z M26.608,336l27.424-96h239.36l-27.424,96
				H26.608z M296,480H56V352h222.032L296,289.12V480z M440,480H312V289.12L329.968,352H440V480z M342.032,336l-27.424-96h127.36
				l27.424,96H342.032z"/>
			<rect x="264" y="448" width="16" height="16"/>
			<rect x="232" y="448" width="16" height="16"/>
			<rect x="200" y="448" width="16" height="16"/>
			<rect x="264" y="416" width="16" height="16"/>
			<rect x="264" y="384" width="16" height="16"/>
			<rect x="232" y="416" width="16" height="16"/>
		</g>
	</g>
</g>
<g>
</g>
<g>
</g>
<g>
</g>
<g>
</g>
<g>
</g>
<g>
</g>
<g>
</g>
<g>
</g>
<g>
</g>
<g>
</g>
<g>
</g>
<g>
</g>
<g>
</g>
<g>
</g>
<g>
</g>
</svg>
